<svg width="37" height="44" viewBox="0 0 37 44" fill="none" xmlns="http://www.w3.org/2000/svg">
<g id="Group">
<path id="Vector" d="M35.4993 34.0541C34.8542 35.5448 34.0905 36.9168 33.2053 38.1786C31.9993 39.8983 31.0116 41.0886 30.2505 41.7498C29.0706 42.8348 27.8065 43.3905 26.4528 43.4221C25.481 43.4221 24.309 43.1457 22.9448 42.5847C21.576 42.0262 20.3182 41.7498 19.1681 41.7498C17.9619 41.7498 16.6682 42.0262 15.2845 42.5847C13.8987 43.1457 12.7822 43.4379 11.9287 43.467C10.6306 43.522 9.33664 42.9506 8.04507 41.7498C7.22074 41.0307 6.18969 39.798 4.95447 38.0521C3.62923 36.1874 2.5397 34.0252 1.68612 31.5601C0.771977 28.8975 0.313721 26.3191 0.313721 23.8229C0.313721 20.9635 0.931582 18.4974 2.16914 16.4308C3.14175 14.7708 4.43566 13.4613 6.0551 12.5C7.67454 11.5388 9.42434 11.0489 11.3087 11.0175C12.3398 11.0175 13.6919 11.3365 15.3722 11.9633C17.0477 12.5922 18.1236 12.9112 18.5953 12.9112C18.9479 12.9112 20.1431 12.5382 22.1691 11.7947C24.0851 11.1053 25.7022 10.8198 27.0269 10.9322C30.6166 11.2219 33.3135 12.637 35.1069 15.1864C31.8966 17.1316 30.3085 19.8561 30.34 23.3512C30.369 26.0736 31.3566 28.3391 33.2977 30.1379C34.1771 30.9728 35.1597 31.618 36.2526 32.0763C36.0158 32.7637 35.7653 33.4221 35.4993 34.0541ZM27.2666 1.65753C27.2666 3.79134 26.487 5.78368 24.9331 7.62778C23.058 9.82001 20.7899 11.0868 18.3303 10.8869C18.299 10.6309 18.2808 10.3615 18.2808 10.0784C18.2808 8.02994 19.1725 5.83766 20.7562 4.0452C21.5468 3.13764 22.5523 2.38302 23.7717 1.78105C24.9885 1.18805 26.1394 0.860113 27.2218 0.803955C27.2534 1.08921 27.2666 1.37449 27.2666 1.6575V1.65753Z" fill="#CCCCCC"/>
</g>
</svg>
