<svg width="49" height="49" viewBox="0 0 49 49" fill="none" xmlns="http://www.w3.org/2000/svg">
<g id="Facebook">
<g id="Group">
<path id="Vector" d="M38.0385 34.4962C37.5245 35.6841 36.9159 36.7774 36.2105 37.7829C35.2494 39.1533 34.4624 40.1018 33.8559 40.6288C32.9157 41.4934 31.9083 41.9361 30.8296 41.9613C30.0551 41.9613 29.1212 41.7411 28.0341 41.294C26.9434 40.849 25.9411 40.6288 25.0246 40.6288C24.0634 40.6288 23.0325 40.849 21.9298 41.294C20.8255 41.7411 19.9359 41.9739 19.2557 41.9971C18.2212 42.0409 17.1901 41.5856 16.1609 40.6288C15.504 40.0557 14.6824 39.0734 13.6981 37.6821C12.642 36.1962 11.7738 34.4732 11.0936 32.5088C10.3652 30.387 10 28.3324 10 26.3432C10 24.0647 10.4924 22.0995 11.4785 20.4526C12.2536 19.1298 13.2847 18.0863 14.5752 17.3203C15.8657 16.5543 17.26 16.1639 18.7616 16.1389C19.5833 16.1389 20.6607 16.3931 21.9997 16.8926C23.3349 17.3938 24.1922 17.6479 24.5681 17.6479C24.8491 17.6479 25.8015 17.3507 27.416 16.7583C28.9428 16.2089 30.2314 15.9813 31.2871 16.071C34.1476 16.3018 36.2967 17.4294 37.7258 19.461C35.1676 21.0111 33.9021 23.1822 33.9272 25.9674C33.9503 28.1368 34.7373 29.9421 36.2841 31.3755C36.9849 32.0408 37.7679 32.555 38.6388 32.9201C38.4501 33.4679 38.2505 33.9926 38.0385 34.4962ZM31.4781 8.68019C31.4781 10.3806 30.8568 11.9682 29.6186 13.4377C28.1243 15.1847 26.317 16.1942 24.357 16.0349C24.332 15.8309 24.3175 15.6162 24.3175 15.3906C24.3175 13.7582 25.0281 12.0112 26.2901 10.5829C26.9201 9.85966 27.7214 9.25832 28.6931 8.77862C29.6627 8.30608 30.5798 8.04475 31.4424 8C31.4676 8.22731 31.4781 8.45464 31.4781 8.68017V8.68019Z" fill="#2B2828"/>
</g>
<rect x="0.5" y="0.5" width="48" height="48" rx="3.5" stroke="#4BC0AF"/>
</g>
</svg>
