<svg width="31" height="31" viewBox="0 0 31 31" fill="none" xmlns="http://www.w3.org/2000/svg">
<g id="uil:book-open">
<path id="Vector" d="M27.3445 2.66095C26.4187 2.50147 25.4811 2.41938 24.5416 2.41553C21.3362 2.41291 18.1976 3.33207 15.5 5.06345C12.7954 3.3548 9.65731 2.4582 6.4583 2.48012C5.5188 2.48397 4.58126 2.56606 3.65538 2.72553C3.35211 2.77782 3.07747 2.93667 2.88092 3.17347C2.68437 3.41028 2.57883 3.70948 2.5833 4.0172V19.5172C2.58053 19.707 2.61963 19.8951 2.69781 20.068C2.77598 20.241 2.89132 20.3946 3.03561 20.5179C3.1799 20.6412 3.34959 20.7312 3.53262 20.7815C3.71565 20.8318 3.90751 20.8412 4.09455 20.8089C5.94553 20.4884 7.84194 20.5416 9.67205 20.9653C11.5022 21.389 13.229 22.1746 14.7508 23.2759L14.9058 23.3664H15.0479C15.1911 23.4261 15.3448 23.4568 15.5 23.4568C15.6552 23.4568 15.8088 23.4261 15.9521 23.3664H16.0941L16.2491 23.2759C17.7603 22.15 19.4822 21.3389 21.3127 20.8907C23.1431 20.4425 25.0449 20.3664 26.9054 20.6668C27.0924 20.6991 27.2843 20.6897 27.4673 20.6395C27.6503 20.5892 27.82 20.4992 27.9643 20.3758C28.1086 20.2525 28.2239 20.0989 28.3021 19.9259C28.3803 19.753 28.4194 19.5649 28.4166 19.3751V3.87512C28.4032 3.58081 28.2895 3.29995 28.0946 3.07911C27.8996 2.85827 27.6349 2.71073 27.3445 2.66095ZM14.2083 19.8272C11.8186 18.57 9.15855 17.9139 6.4583 17.9155H5.16663V4.99887C5.59683 4.97407 6.0281 4.97407 6.4583 4.99887C9.21392 4.99582 11.9094 5.80447 14.2083 7.32387V19.8272ZM25.8333 17.9672H24.5416C21.8414 17.9655 19.1814 18.6217 16.7916 19.8789V7.32387C19.0905 5.80447 21.786 4.99582 24.5416 4.99887C24.9718 4.97407 25.4031 4.97407 25.8333 4.99887V17.9672ZM27.3445 23.3276C26.4187 23.1681 25.4811 23.0861 24.5416 23.0822C21.3362 23.0796 18.1976 23.9987 15.5 25.7301C12.8023 23.9987 9.66374 23.0796 6.4583 23.0822C5.5188 23.0861 4.58126 23.1681 3.65538 23.3276C3.48724 23.3543 3.32604 23.414 3.18103 23.5032C3.03603 23.5924 2.91009 23.7093 2.81046 23.8474C2.71083 23.9854 2.63947 24.1418 2.60048 24.3075C2.5615 24.4733 2.55566 24.645 2.5833 24.813C2.64894 25.1485 2.84485 25.4442 3.12811 25.6355C3.41138 25.8267 3.7589 25.8979 4.09455 25.8335C5.94553 25.513 7.84194 25.5661 9.67205 25.9898C11.5022 26.4135 13.229 27.1992 14.7508 28.3005C14.9696 28.4563 15.2314 28.54 15.5 28.54C15.7685 28.54 16.0304 28.4563 16.2491 28.3005C17.7709 27.1992 19.4978 26.4135 21.3279 25.9898C23.158 25.5661 25.0544 25.513 26.9054 25.8335C27.241 25.8979 27.5886 25.8267 27.8718 25.6355C28.1551 25.4442 28.351 25.1485 28.4166 24.813C28.4443 24.645 28.4384 24.4733 28.3994 24.3075C28.3605 24.1418 28.2891 23.9854 28.1895 23.8474C28.0898 23.7093 27.9639 23.5924 27.8189 23.5032C27.6739 23.414 27.5127 23.3543 27.3445 23.3276Z" fill="#439289"/>
</g>
</svg>
