<svg width="33" height="33" viewBox="0 0 33 33" fill="none" xmlns="http://www.w3.org/2000/svg">
<g id="basil:book-open-solid">
<path id="Vector" fill-rule="evenodd" clip-rule="evenodd" d="M15.7987 5.65134C13.8985 4.51157 11.7604 3.82667 9.55168 3.65016C7.34291 3.47365 5.12325 3.81031 3.06616 4.63384C2.7694 4.75257 2.51503 4.9575 2.33587 5.2222C2.15671 5.4869 2.06098 5.79921 2.06104 6.11884V22.1513C2.06104 23.2238 3.14591 23.9581 4.14279 23.5593C5.82734 22.8856 7.64489 22.6104 9.45339 22.7555C11.2619 22.9005 13.0124 23.4617 14.568 24.3953L16.1287 25.3303C16.2483 25.4032 16.3762 25.4335 16.4985 25.4321C16.6293 25.4344 16.758 25.3996 16.8698 25.3317L18.429 24.3953C19.9847 23.4617 21.7352 22.9005 23.5437 22.7555C25.3522 22.6104 27.1697 22.8856 28.8543 23.5593C29.0846 23.6515 29.334 23.6857 29.5806 23.6592C29.8273 23.6326 30.0636 23.546 30.2691 23.4069C30.4745 23.2679 30.6427 23.0806 30.7589 22.8614C30.8752 22.6423 30.936 22.398 30.936 22.15V6.11884C30.936 5.46434 30.5373 4.87722 29.9309 4.63384C27.8738 3.81095 25.6543 3.47486 23.4458 3.65185C21.2373 3.82883 19.0996 4.5141 17.1998 5.65409L16.4985 6.07484L15.7973 5.65409L15.7987 5.65134ZM17.5312 8.93759C17.5312 8.66409 17.4225 8.40178 17.2291 8.20839C17.0357 8.01499 16.7734 7.90634 16.4999 7.90634C16.2264 7.90634 15.9641 8.01499 15.7707 8.20839C15.5773 8.40178 15.4687 8.66409 15.4687 8.93759V22.0001C15.4687 22.2736 15.5773 22.5359 15.7707 22.7293C15.9641 22.9227 16.2264 23.0313 16.4999 23.0313C16.7734 23.0313 17.0357 22.9227 17.2291 22.7293C17.4225 22.5359 17.5312 22.2736 17.5312 22.0001V8.93759Z" fill="#439289"/>
<path id="Vector_2" d="M3.7469 26.1827C5.11371 25.3854 6.66768 24.9653 8.25002 24.9653C9.83236 24.9653 11.3863 25.3854 12.7531 26.1827L14.2478 27.0544C14.9313 27.4533 15.7086 27.6635 16.5 27.6635C17.2915 27.6635 18.0687 27.4533 18.7523 27.0544L20.2469 26.1827C21.6137 25.3854 23.1677 24.9653 24.75 24.9653C26.3324 24.9653 27.8863 25.3854 29.2531 26.1827L29.3948 26.2652C29.5118 26.3334 29.6142 26.4241 29.6962 26.5319C29.7782 26.6397 29.8381 26.7627 29.8726 26.8937C29.907 27.0247 29.9154 27.1612 29.8971 27.2954C29.8788 27.4296 29.8343 27.5589 29.766 27.6759C29.6978 27.7929 29.6071 27.8954 29.4993 27.9773C29.3915 28.0593 29.2685 28.1193 29.1375 28.1537C29.0065 28.1882 28.87 28.1965 28.7358 28.1783C28.6016 28.16 28.4723 28.1154 28.3553 28.0472L28.2136 27.9647C27.1623 27.3515 25.9671 27.0284 24.75 27.0284C23.533 27.0284 22.3377 27.3515 21.2864 27.9647L19.7904 28.8364C18.7917 29.4189 17.6562 29.7258 16.5 29.7258C15.3438 29.7258 14.2084 29.4189 13.2096 28.8364L11.7136 27.9647C10.6623 27.3515 9.46708 27.0284 8.25002 27.0284C7.03296 27.0284 5.83772 27.3515 4.7864 27.9647L4.64477 28.0472C4.40846 28.185 4.12708 28.2234 3.86251 28.1537C3.59794 28.0841 3.37187 27.9122 3.23402 27.6759C3.09618 27.4396 3.05785 27.1582 3.12747 26.8937C3.19709 26.6291 3.36896 26.403 3.60527 26.2652L3.7469 26.1827Z" fill="#439289"/>
</g>
</svg>
