<svg width="29" height="29" viewBox="0 0 29 29" fill="none" xmlns="http://www.w3.org/2000/svg">
<path id="Vector" d="M8.69761 22.9C7.10304 22.9 5.8129 24.16 5.8129 25.7C5.8129 27.24 7.10304 28.5 8.69761 28.5C10.2922 28.5 11.5968 27.24 11.5968 25.7C11.5968 24.16 10.2922 22.9 8.69761 22.9ZM0 1.9C0 2.67 0.65232 3.3 1.4496 3.3H2.8992L8.11777 13.926L6.1608 17.342C5.1026 19.218 6.49421 21.5 8.69761 21.5H24.6432C25.4405 21.5 26.0928 20.87 26.0928 20.1C26.0928 19.33 25.4405 18.7 24.6432 18.7H8.69761L10.2922 15.9H21.0917C22.1789 15.9 23.1356 15.326 23.6285 14.458L28.8181 5.372C28.9402 5.1598 29.0029 4.92046 28.9999 4.67768C28.9969 4.4349 28.9283 4.19708 28.8009 3.98777C28.6735 3.77845 28.4917 3.60489 28.2735 3.48427C28.0553 3.36364 27.8083 3.30012 27.5569 3.3H6.10282L5.13159 1.298C5.01508 1.05903 4.8305 0.857058 4.59945 0.715732C4.3684 0.574406 4.10044 0.499576 3.82695 0.500002H1.4496C0.65232 0.500002 0 1.13 0 1.9ZM23.1936 22.9C21.5991 22.9 20.3089 24.16 20.3089 25.7C20.3089 27.24 21.5991 28.5 23.1936 28.5C24.7882 28.5 26.0928 27.24 26.0928 25.7C26.0928 24.16 24.7882 22.9 23.1936 22.9Z" fill="#439289"/>
</svg>
