<svg width="30" height="29" viewBox="0 0 30 29" fill="none" xmlns="http://www.w3.org/2000/svg">
<path id="Vector" d="M22.3881 5.8V2.9H10.4478V5.8M8.95522 23.2C7.31343 23.2 5.97015 24.505 5.97015 26.1C5.97015 27.695 7.31343 29 8.95522 29C10.597 29 11.9403 27.695 11.9403 26.1C11.9403 24.505 10.597 23.2 8.95522 23.2ZM23.8806 23.2C22.2388 23.2 20.8955 24.505 20.8955 26.1C20.8955 27.695 22.2388 29 23.8806 29C25.5224 29 26.8657 27.695 26.8657 26.1C26.8657 24.505 25.5224 23.2 23.8806 23.2ZM9.25373 18.56V18.415L10.597 15.95H21.6418C22.6866 15.95 23.7313 15.37 24.1791 14.5L30 4.35L27.4627 2.9L21.6418 13.05H11.194L4.92537 0H0V2.9H2.98507L8.35821 13.92L6.26866 17.4C6.1194 17.835 5.97015 18.27 5.97015 18.85C5.97015 20.445 7.31343 21.75 8.95522 21.75H26.8657V18.85H9.55224C9.40298 18.85 9.25373 18.705 9.25373 18.56Z" fill="#439289"/>
</svg>
