<svg width="47" height="47" viewBox="0 0 47 47" fill="none" xmlns="http://www.w3.org/2000/svg">
<g id="Facbook">
<path id="Vector" d="M23.2157 46.7256C36.0374 46.7256 46.4314 36.3316 46.4314 23.5099C46.4314 10.6882 36.0374 0.294189 23.2157 0.294189C10.394 0.294189 0 10.6882 0 23.5099C0 36.3316 10.394 46.7256 23.2157 46.7256Z" fill="#1977F3"/>
<path id="Vector_2" d="M32.2525 30.2222L33.2809 23.5098H26.8428V19.1546C26.8428 17.3198 27.7406 15.5275 30.6267 15.5275H33.5552V9.81415C33.5552 9.81415 30.8977 9.36035 28.3577 9.36035C23.0557 9.36035 19.5885 12.5729 19.5885 18.394V23.5098H13.6924V30.2222H19.5885V46.4448C20.7704 46.6309 21.9816 46.7256 23.2157 46.7256C24.4498 46.7256 25.661 46.6276 26.8428 46.4448V30.2222H32.2525Z" fill="#FAFAFA"/>
</g>
</svg>
