<svg width="49" height="49" viewBox="0 0 49 49" fill="none" xmlns="http://www.w3.org/2000/svg">
<g id="apple">
<g id="Facbook">
<path id="Vector" d="M24.5 43C34.7173 43 43 34.7173 43 24.5C43 14.2827 34.7173 6 24.5 6C14.2827 6 6 14.2827 6 24.5C6 34.7173 14.2827 43 24.5 43Z" fill="#1977F3"/>
<path id="Vector_2" d="M31.7013 29.8489L32.5208 24.5H27.3904V21.0294C27.3904 19.5673 28.1058 18.139 30.4057 18.139H32.7393V13.5862C32.7393 13.5862 30.6216 13.2246 28.5975 13.2246C24.3725 13.2246 21.6096 15.7846 21.6096 20.4233V24.5H16.9111V29.8489H21.6096V42.7763C22.5514 42.9246 23.5166 43 24.5 43C25.4834 43 26.4486 42.922 27.3904 42.7763V29.8489H31.7013Z" fill="#FAFAFA"/>
</g>
<rect x="0.5" y="0.5" width="48" height="48" rx="3.5" stroke="#4BC0AF"/>
</g>
</svg>
