<svg width="24" height="27" viewBox="0 0 24 27" fill="none" xmlns="http://www.w3.org/2000/svg">
<path id="Vector" d="M3 23.9143H7.5V14.6571H16.5V23.9143H21V10.0286L12 3.08571L3 10.0286V23.9143ZM3 27C2.175 27 1.4685 26.6976 0.880502 26.0928C0.292502 25.488 -0.000997453 24.7618 2.54669e-06 23.9143V10.0286C2.54669e-06 9.54 0.106502 9.07714 0.319502 8.64C0.532502 8.20286 0.826003 7.84286 1.2 7.56L10.2 0.617143C10.475 0.411429 10.7625 0.257143 11.0625 0.154286C11.3625 0.0514284 11.675 0 12 0C12.325 0 12.6375 0.0514284 12.9375 0.154286C13.2375 0.257143 13.525 0.411429 13.8 0.617143L22.8 7.56C23.175 7.84286 23.469 8.20286 23.682 8.64C23.895 9.07714 24.001 9.54 24 10.0286V23.9143C24 24.7629 23.706 25.4895 23.118 26.0943C22.53 26.6991 21.824 27.001 21 27H13.5V17.7429H10.5V27H3Z" fill="#439289"/>
</svg>
