<svg width="28" height="37" viewBox="0 0 28 37" fill="none" xmlns="http://www.w3.org/2000/svg">
<path id="Vector" d="M24.8889 26.3291V17.3314C24.1111 17.5044 23.3333 17.6775 22.5556 17.6775H21.7778V28.0594H6.22222V15.9472C6.22222 11.1023 9.64444 7.29555 14 7.29555C14.1556 5.04613 15.0889 3.14278 16.3333 1.58549C15.8667 0.893364 14.9333 0.374268 14 0.374268C12.2889 0.374268 10.8889 1.93156 10.8889 3.83491V4.35401C6.22222 5.91129 3.11111 10.5832 3.11111 15.9472V26.3291L0 29.7897V31.52H28V29.7897L24.8889 26.3291ZM10.8889 33.2504C10.8889 35.1537 12.2889 36.711 14 36.711C15.7111 36.711 17.1111 35.1537 17.1111 33.2504H10.8889ZM21 8.16071C21 11.4483 23.9556 8.73511 21 8.73511C18.0444 8.73511 21 13.7554 21 10.4678C21 7.1802 21.7778 15.803 21.7778 8.95377C24.7333 8.95377 13 8.16071 21 8.16071Z" fill="#4BC0AF"/>
</svg>
