<svg width="28" height="29" viewBox="0 0 28 29" fill="none" xmlns="http://www.w3.org/2000/svg">
<path id="Vector" d="M14 14.5C12.075 14.5 10.4271 13.8146 9.05625 12.4437C7.68542 11.0729 7 9.425 7 7.5C7 5.575 7.68542 3.92708 9.05625 2.55625C10.4271 1.18542 12.075 0.5 14 0.5C15.925 0.5 17.5729 1.18542 18.9437 2.55625C20.3146 3.92708 21 5.575 21 7.5C21 9.425 20.3146 11.0729 18.9437 12.4437C17.5729 13.8146 15.925 14.5 14 14.5ZM0 28.5V23.6C0 22.6083 0.2555 21.6966 0.7665 20.8647C1.2775 20.0329 1.95533 19.3988 2.8 18.9625C4.60833 18.0583 6.44583 17.3799 8.3125 16.9272C10.1792 16.4746 12.075 16.2488 14 16.25C15.925 16.25 17.8208 16.4763 19.6875 16.929C21.5542 17.3817 23.3917 18.0595 25.2 18.9625C26.0458 19.4 26.7242 20.0347 27.2352 20.8665C27.7462 21.6983 28.0012 22.6095 28 23.6V28.5H0ZM3.5 25H24.5V23.6C24.5 23.2792 24.4195 22.9875 24.2585 22.725C24.0975 22.4625 23.8863 22.2583 23.625 22.1125C22.05 21.325 20.4604 20.7347 18.8562 20.3415C17.2521 19.9483 15.6333 19.7512 14 19.75C12.3667 19.75 10.7479 19.9472 9.14375 20.3415C7.53958 20.7358 5.95 21.3262 4.375 22.1125C4.1125 22.2583 3.90075 22.4625 3.73975 22.725C3.57875 22.9875 3.49883 23.2792 3.5 23.6V25ZM14 11C14.9625 11 15.7867 10.657 16.4727 9.971C17.1587 9.285 17.5012 8.46133 17.5 7.5C17.5 6.5375 17.157 5.71325 16.471 5.02725C15.785 4.34125 14.9613 3.99883 14 4C13.0375 4 12.2132 4.343 11.5272 5.029C10.8412 5.715 10.4988 6.53867 10.5 7.5C10.5 8.4625 10.843 9.28675 11.529 9.97275C12.215 10.6588 13.0387 11.0012 14 11Z" fill="#439289"/>
</svg>
