<svg width="34" height="31" viewBox="0 0 34 31" fill="none" xmlns="http://www.w3.org/2000/svg">
<g id="material-symbols:person">
<path id="Vector" d="M17.0001 15.5001C15.4417 15.5001 14.1077 14.9942 12.998 13.9824C11.8883 12.9706 11.3334 11.7542 11.3334 10.3334C11.3334 8.91258 11.8883 7.69626 12.998 6.68446C14.1077 5.67265 15.4417 5.16675 17.0001 5.16675C18.5584 5.16675 19.8924 5.67265 21.0022 6.68446C22.1119 7.69626 22.6667 8.91258 22.6667 10.3334C22.6667 11.7542 22.1119 12.9706 21.0022 13.9824C19.8924 14.9942 18.5584 15.5001 17.0001 15.5001ZM5.66675 25.8334V22.2167C5.66675 21.4848 5.87358 20.8118 6.28725 20.1979C6.70092 19.5839 7.24964 19.1159 7.93341 18.7938C9.3973 18.1265 10.8848 17.6257 12.3959 17.2916C13.907 16.9575 15.4417 16.7909 17.0001 16.7917C18.5584 16.7917 20.0931 16.9588 21.6042 17.2929C23.1154 17.627 24.6029 18.1273 26.0667 18.7938C26.7515 19.1167 27.3007 19.5852 27.7143 20.1992C28.128 20.8131 28.3344 21.4857 28.3334 22.2167V25.8334H5.66675Z" fill="#439289"/>
</g>
</svg>
