<svg width="16" height="16" viewBox="0 0 16 16" fill="none" xmlns="http://www.w3.org/2000/svg">
<path id="Vector" d="M14.5 15.75L10.3 11.95C9.8 12.35 9.225 12.6667 8.575 12.9C7.925 13.1333 7.23333 13.25 6.5 13.25C4.68333 13.25 3.146 12.6207 1.888 11.362C0.63 10.1033 0.000666667 8.566 0 6.75C0 4.93333 0.629333 3.396 1.888 2.138C3.14667 0.88 4.684 0.250667 6.5 0.25C8.31667 0.25 9.854 0.879333 11.112 2.138C12.37 3.39667 12.9993 4.934 13 6.75C13 7.48333 12.8833 8.175 12.65 8.825C12.4167 9.475 12.1 10.05 11.7 10.55L15.5 14.75L15 15.25L14.5 15.75ZM6.5 11.25C7.75 11.25 8.81267 10.8123 9.688 9.937C10.5633 9.06167 11.0007 7.99933 11 6.75C11 5.5 10.5623 4.43733 9.687 3.562C8.81167 2.68667 7.74933 2.24933 6.5 2.25C5.25 2.25 4.18733 2.68767 3.312 3.563C2.43667 4.43833 1.99933 5.50067 2 6.75C2 8 2.43767 9.06267 3.313 9.938C4.18833 10.8133 5.25067 11.2507 6.5 11.25Z" fill="#9D9D9D"/>
</svg>
